<svg id="Layer_1" data-name="Layer 1" xmlns="http://www.w3.org/2000/svg" viewBox="0 0 195.54 204.16"><defs><style>.cls-1{fill:#866aaf;}</style></defs><title>logo</title><path class="cls-1" d="M1095.42,718c5.45-40.1-.26-91.93-.51-94.19l-.76-6.8,0,0,0,0a33.07,33.07,0,0,0-11-.83q-.8-2.61-1.75-5.13l3.27.62,6.51,1.25-2.18-6.27c-.39-1.13-8.44-23.78-26.24-40.57,5.55-5.75,8-12.64,6.78-19.42a20.94,20.94,0,0,0-14.34-16c-8-2.6-16.61-.56-24,5.58a107.78,107.78,0,0,0-62.5,0c-7.35-6.14-16-8.18-24-5.58a20.94,20.94,0,0,0-14.33,16c-1.23,6.78,1.23,13.67,6.78,19.42-17.8,16.79-25.85,39.44-26.24,40.57l-2.19,6.27,6.52-1.25,3.28-.62q-1,2.51-1.75,5.13a33.15,33.15,0,0,0-11,.83h0l-.76,6.8c-.26,2.33-6.31,57.31,0,97.85l.4,2.57,2.54.55a476.81,476.81,0,0,0,183.9,0l2.54-.55.4-2.57c.17-1.07.32-2.15.47-3.24l.23-.27Zm-60.56-50.1A621.22,621.22,0,0,0,1088,631.43c1.3,14.75,3.79,50.77.46,80.8Zm-82.42-104,1.54-1,.21-1.82c0-.34.91-8.39-4.16-14.69a17.84,17.84,0,0,0-7.87-5.56,14.23,14.23,0,0,1,5-2.85c5.88-1.91,12.48.06,18.09,5.42L967,545l2.27-.88c.13,0,12.75-4.9,30.72-4.9s30.59,4.85,30.71,4.9l2.28.89,1.77-1.69c5.61-5.36,12.2-7.33,18.09-5.42a14.23,14.23,0,0,1,5,2.85,17.79,17.79,0,0,0-7.87,5.56c-5.07,6.3-4.21,14.35-4.17,14.69l.21,1.82,1.55,1c16.81,10.61,27.12,29.3,31.6,39-2.39-.4-3.54-.55-3.61-.56l-7.18-.94,3.26,6.46a70.86,70.86,0,0,1,6.67,21.42c-16,11.95-47.64,34.37-74.48,46.75v-34.6l19.2-19.21c-23-9.44-46,0-46,0L996.2,641.4V676c-26.85-12.38-58.45-34.82-74.5-46.76a71.85,71.85,0,0,1,6.67-21.41l3.26-6.46-7.18.94c-.07,0-1.22.16-3.62.57C925.3,593.13,935.59,574.46,952.44,563.82ZM911.71,713.76c-3.6-30.32-1.05-67.33.27-82.33a617.54,617.54,0,0,0,54.34,37.15Zm5.78,5.07,55.82-46.18a239.57,239.57,0,0,0,25.22,12.65l1.47.62,1.47-.62A243.49,243.49,0,0,0,1027.89,672l56.28,46.56a471.79,471.79,0,0,1-166.68.3Z" transform="translate(-902.23 -529.54)"/><path class="cls-1" d="M1035.81,597.25l5.83-6.29a10.58,10.58,0,1,0,2.69,4.75Z" transform="translate(-902.23 -529.54)"/><path class="cls-1" d="M967.14,597.25,973,591a10.33,10.33,0,1,0,3,7.31,9.88,9.88,0,0,0-.34-2.56Z" transform="translate(-902.23 -529.54)"/><path class="cls-1" d="M1022,579.05s0-.16.1-.45a6.87,6.87,0,0,1,.41-1.21,10,10,0,0,1,.94-1.71,11.84,11.84,0,0,1,1.62-1.95,13.22,13.22,0,0,1,2.43-1.84,10.74,10.74,0,0,1,3.2-1.29,11.61,11.61,0,0,1,3.73-.18,22.89,22.89,0,0,1,3.71.68,19.85,19.85,0,0,1,3.42,1.25,11.91,11.91,0,0,1,1.54.82,15.47,15.47,0,0,1,1.41.91,15.73,15.73,0,0,1,1.28.95c.4.34.81.63,1.16,1,.72.66,1.38,1.3,2,1.93s1.06,1.2,1.49,1.73a14.79,14.79,0,0,1,1.06,1.39l.87,1.24-.44.4-1.19-.9c-.37-.29-.83-.63-1.37-1s-1.13-.8-1.81-1.21-1.41-.85-2.19-1.27a27.65,27.65,0,0,0-2.51-1.16,12.56,12.56,0,0,0-1.34-.48,17.64,17.64,0,0,0-4.16-.86,9.72,9.72,0,0,0-2.71.21c-.87.17-1.67.44-2.45.64s-1.56.39-2.33.55-1.49.4-2.2.59l-2,.6L1024,579l-1.54.48Z" transform="translate(-902.23 -529.54)"/><path class="cls-1" d="M952,588.13s0-.16.1-.45a7.06,7.06,0,0,1,.42-1.21,9.89,9.89,0,0,1,.93-1.71,12.47,12.47,0,0,1,1.63-2,12.8,12.8,0,0,1,2.42-1.84,10.8,10.8,0,0,1,3.21-1.29,11.54,11.54,0,0,1,3.72-.18,22.69,22.69,0,0,1,3.71.68,19.55,19.55,0,0,1,3.42,1.25,11.91,11.91,0,0,1,1.54.82,15.47,15.47,0,0,1,1.41.91c.45.31.89.62,1.28,1s.82.63,1.16,1c.73.67,1.39,1.3,2,1.93s1.06,1.21,1.49,1.73a16.21,16.21,0,0,1,1.06,1.39l.88,1.24-.44.4s-.44-.32-1.19-.9c-.38-.28-.84-.63-1.38-1s-1.13-.8-1.81-1.2-1.41-.86-2.19-1.28a27.65,27.65,0,0,0-2.51-1.16,11.82,11.82,0,0,0-1.34-.48,12.68,12.68,0,0,0-1.37-.4,14.13,14.13,0,0,0-2.79-.46,9.75,9.75,0,0,0-2.71.21c-.86.17-1.67.44-2.45.64s-1.55.39-2.32.55-1.5.4-2.21.59l-2,.61L954,588l-1.54.49Z" transform="translate(-902.23 -529.54)"/></svg>